<svg xmlns="http://www.w3.org/2000/svg" xmlns:xlink="http://www.w3.org/1999/xlink" width="500" zoomAndPan="magnify" viewBox="0 0 375 374.999991" height="500" preserveAspectRatio="xMidYMid meet" version="1.0"><defs><filter x="0%" y="0%" width="100%" height="100%" id="f2be8a95fd"><feColorMatrix values="0 0 0 0 1 0 0 0 0 1 0 0 0 0 1 0 0 0 1 0" color-interpolation-filters="sRGB"/></filter><mask id="851498c3ba"><g filter="url(#f2be8a95fd)"><rect x="-37.5" width="450" fill="#000000" y="-37.499999" height="449.999989" fill-opacity="0.149"/></g></mask><clipPath id="dc0d3ae28c"><path d="M 0.078125 0.636719 L 94.542969 0.636719 L 94.542969 98.136719 L 0.078125 98.136719 Z M 0.078125 0.636719 " clip-rule="nonzero"/></clipPath><clipPath id="282bac22e4"><rect x="0" width="95" y="0" height="99"/></clipPath><mask id="5416ef0930"><g filter="url(#f2be8a95fd)"><rect x="-37.5" width="450" fill="#000000" y="-37.499999" height="449.999989" fill-opacity="0.149"/></g></mask><clipPath id="568a7e804f"><path d="M 0.5 12 L 79 12 L 79 90.488281 L 0.5 90.488281 Z M 0.5 12 " clip-rule="nonzero"/></clipPath><clipPath id="9f26c248cd"><path d="M 53 0.488281 L 111.5 0.488281 L 111.5 59 L 53 59 Z M 53 0.488281 " clip-rule="nonzero"/></clipPath><clipPath id="d0baebb4b5"><rect x="0" width="113" y="0" height="91"/></clipPath><mask id="cc5d9192aa"><g filter="url(#f2be8a95fd)"><rect x="-37.5" width="450" fill="#000000" y="-37.499999" height="449.999989" fill-opacity="0.2"/></g></mask><clipPath id="918e65c34c"><path d="M 0.5 0.5 L 62.75 0.5 L 62.75 110.75 L 0.5 110.75 Z M 0.5 0.5 " clip-rule="nonzero"/></clipPath><clipPath id="642e5880b1"><rect x="0" width="63" y="0" height="111"/></clipPath><mask id="b695ef1417"><g filter="url(#f2be8a95fd)"><rect x="-37.5" width="450" fill="#000000" y="-37.499999" height="449.999989" fill-opacity="0.149"/></g></mask><clipPath id="9e3c72cfb7"><path d="M 0.160156 0.292969 L 40 0.292969 L 40 39 L 0.160156 39 Z M 0.160156 0.292969 " clip-rule="nonzero"/></clipPath><clipPath id="399b7e1652"><path d="M 21 23 L 86.554688 23 L 86.554688 88.042969 L 21 88.042969 Z M 21 23 " clip-rule="nonzero"/></clipPath><clipPath id="2fcbad48a0"><rect x="0" width="87" y="0" height="89"/></clipPath></defs><g mask="url(#851498c3ba)"><g transform="matrix(1, 0, 0, 1, 250, 251)"><g clip-path="url(#282bac22e4)"><g clip-path="url(#dc0d3ae28c)"><path fill="#ae0806" d="M 23.710938 81 C 23.921875 81.359375 23.785156 81.835938 23.421875 82.046875 L 9.078125 90.234375 C 8.964844 90.3125 8.828125 90.332031 8.695312 90.332031 C 8.429688 90.332031 8.179688 90.195312 8.027344 89.949219 C 7.816406 89.585938 7.949219 89.113281 8.3125 88.902344 L 22.660156 80.714844 C 23.023438 80.523438 23.5 80.636719 23.710938 81 Z M 94 53.175781 L 85.203125 48.148438 C 84.839844 47.941406 84.359375 48.074219 84.148438 48.4375 C 83.941406 48.796875 84.074219 49.273438 84.4375 49.484375 L 93.234375 54.511719 C 93.351562 54.585938 93.484375 54.605469 93.617188 54.605469 C 93.886719 54.605469 94.132812 54.472656 94.285156 54.226562 C 94.496094 53.863281 94.363281 53.386719 94 53.175781 Z M 45.417969 84.046875 C 42.359375 84.046875 39.871094 86.523438 39.871094 89.570312 C 39.871094 89.988281 40.214844 90.332031 40.636719 90.332031 C 41.058594 90.332031 41.402344 89.988281 41.402344 89.570312 C 41.402344 87.359375 43.199219 85.570312 45.417969 85.570312 C 45.839844 85.570312 46.183594 85.226562 46.183594 84.808594 C 46.183594 84.390625 45.839844 84.046875 45.417969 84.046875 Z M 22.3125 16.445312 C 22.734375 16.425781 23.058594 16.082031 23.039062 15.664062 C 23.039062 15.605469 23.039062 15.546875 23.039062 15.511719 C 23.039062 13.300781 24.839844 11.511719 27.058594 11.511719 C 27.476562 11.511719 27.824219 11.167969 27.824219 10.75 C 27.824219 10.332031 27.476562 9.988281 27.058594 9.988281 C 23.996094 9.988281 21.511719 12.464844 21.511719 15.511719 C 21.511719 15.585938 21.511719 15.664062 21.511719 15.738281 C 21.53125 16.15625 21.875 16.460938 22.277344 16.460938 C 22.296875 16.445312 22.296875 16.445312 22.3125 16.445312 Z M 8.695312 41.769531 C 5.636719 41.769531 3.148438 44.246094 3.148438 47.292969 C 3.148438 47.710938 3.492188 48.054688 3.914062 48.054688 C 4.335938 48.054688 4.679688 47.710938 4.679688 47.292969 C 4.679688 45.085938 6.476562 43.292969 8.695312 43.292969 C 9.117188 43.292969 9.460938 42.953125 9.460938 42.53125 C 9.460938 42.113281 9.117188 41.769531 8.695312 41.769531 Z M 82.90625 34.496094 L 82.90625 47.292969 C 82.90625 47.558594 82.753906 47.828125 82.523438 47.960938 L 64.546875 58.203125 L 64.546875 79.09375 C 64.546875 79.363281 64.390625 79.628906 64.164062 79.761719 L 53.242188 85.988281 C 53.738281 87.074219 54.027344 88.292969 54.027344 89.570312 C 54.027344 94.292969 50.164062 98.136719 45.417969 98.136719 C 40.675781 98.136719 36.8125 94.292969 36.8125 89.570312 C 36.8125 88.292969 37.097656 87.074219 37.597656 85.988281 L 26.675781 79.761719 C 26.445312 79.628906 26.292969 79.378906 26.292969 79.09375 L 26.292969 58.203125 L 15.753906 52.1875 C 14.183594 54.414062 11.601562 55.863281 8.695312 55.863281 C 3.953125 55.863281 0.0898438 52.015625 0.0898438 47.292969 C 0.0898438 42.816406 3.550781 39.144531 7.929688 38.761719 L 7.929688 25.964844 C 7.929688 25.699219 8.085938 25.433594 8.3125 25.296875 L 19.234375 19.070312 C 18.738281 17.984375 18.449219 16.765625 18.449219 15.492188 C 18.449219 10.769531 22.3125 6.921875 27.058594 6.921875 C 31.800781 6.921875 35.664062 10.769531 35.664062 15.492188 C 35.664062 16.765625 35.378906 17.984375 34.878906 19.070312 L 45.417969 25.089844 L 63.398438 14.824219 C 63.628906 14.691406 63.914062 14.691406 64.164062 14.824219 L 75.085938 21.050781 C 76.632812 18.84375 79.214844 17.375 82.140625 17.375 C 86.886719 17.375 90.75 21.222656 90.75 25.945312 C 90.75 30.441406 87.285156 34.117188 82.90625 34.496094 Z M 75.066406 25.964844 C 75.066406 29.851562 78.238281 33.011719 82.140625 33.011719 C 86.042969 33.011719 89.21875 29.851562 89.21875 25.964844 C 89.21875 22.082031 86.042969 18.917969 82.140625 18.917969 C 78.238281 18.917969 75.066406 22.082031 75.066406 25.964844 Z M 19.980469 15.492188 C 19.980469 19.375 23.15625 22.539062 27.058594 22.539062 C 30.960938 22.539062 34.132812 19.375 34.132812 15.492188 C 34.132812 11.605469 30.960938 8.445312 27.058594 8.445312 C 23.15625 8.445312 19.980469 11.605469 19.980469 15.492188 Z M 15.773438 47.292969 C 15.773438 43.410156 12.597656 40.246094 8.695312 40.246094 C 4.792969 40.246094 1.621094 43.410156 1.621094 47.292969 C 1.621094 51.179688 4.792969 54.339844 8.695312 54.339844 C 12.597656 54.339844 15.773438 51.179688 15.773438 47.292969 Z M 17.304688 47.292969 C 17.304688 48.570312 17.015625 49.789062 16.519531 50.875 L 27.058594 56.890625 L 44.652344 46.855469 L 44.652344 26.402344 L 34.113281 20.386719 C 32.566406 22.59375 29.984375 24.0625 27.058594 24.0625 C 24.132812 24.0625 21.566406 22.613281 20 20.386719 L 9.460938 26.402344 L 9.460938 38.761719 C 13.839844 39.144531 17.304688 42.816406 17.304688 47.292969 Z M 52.496094 89.570312 C 52.496094 85.683594 49.320312 82.523438 45.417969 82.523438 C 41.515625 82.523438 38.34375 85.683594 38.34375 89.570312 C 38.34375 93.453125 41.515625 96.613281 45.417969 96.613281 C 49.320312 96.613281 52.496094 93.453125 52.496094 89.570312 Z M 63.015625 78.65625 L 63.015625 58.203125 L 45.417969 48.167969 L 27.824219 58.203125 L 27.824219 78.65625 L 38.359375 84.675781 C 39.910156 82.464844 42.492188 81 45.417969 81 C 48.34375 81 50.910156 82.445312 52.476562 84.675781 Z M 81.375 46.855469 L 81.375 34.496094 C 76.996094 34.117188 73.535156 30.441406 73.535156 25.964844 C 73.535156 24.6875 73.820312 23.46875 74.320312 22.386719 L 63.78125 16.367188 L 46.183594 26.402344 L 46.183594 46.855469 L 63.78125 56.890625 Z M 77.359375 26.726562 C 77.78125 26.726562 78.125 26.382812 78.125 25.964844 C 78.125 23.757812 79.921875 21.964844 82.140625 21.964844 C 82.5625 21.964844 82.90625 21.625 82.90625 21.203125 C 82.90625 20.785156 82.5625 20.441406 82.140625 20.441406 C 79.082031 20.441406 76.59375 22.917969 76.59375 25.964844 C 76.59375 26.382812 76.9375 26.726562 77.359375 26.726562 Z M 63.78125 12.253906 C 64.199219 12.253906 64.546875 11.910156 64.546875 11.492188 L 64.546875 1.398438 C 64.546875 0.980469 64.199219 0.636719 63.78125 0.636719 C 63.359375 0.636719 63.015625 0.980469 63.015625 1.398438 L 63.015625 11.492188 C 63.015625 11.910156 63.359375 12.253906 63.78125 12.253906 Z M 11.566406 33.773438 C 11.144531 33.773438 10.800781 34.117188 10.800781 34.535156 L 10.800781 36.628906 C 10.800781 37.046875 11.144531 37.390625 11.566406 37.390625 C 11.984375 37.390625 12.332031 37.046875 12.332031 36.628906 L 12.332031 34.535156 C 12.332031 34.117188 11.984375 33.773438 11.566406 33.773438 Z M 19.886719 22.859375 C 19.675781 22.5 19.214844 22.367188 18.851562 22.574219 L 11.203125 26.820312 C 10.953125 26.957031 10.820312 27.203125 10.820312 27.488281 L 10.820312 31.296875 C 10.820312 31.714844 11.164062 32.058594 11.585938 32.058594 C 12.003906 32.058594 12.347656 31.714844 12.347656 31.296875 L 12.347656 27.925781 L 19.617188 23.890625 C 19.960938 23.699219 20.09375 23.222656 19.886719 22.859375 Z M 40.0625 52.757812 L 29.351562 58.8125 C 29.105469 58.949219 28.96875 59.195312 28.96875 59.480469 L 28.96875 73.191406 C 28.96875 73.609375 29.3125 73.953125 29.734375 73.953125 C 30.15625 73.953125 30.5 73.609375 30.5 73.191406 L 30.5 59.917969 L 40.828125 54.089844 C 41.191406 53.882812 41.324219 53.425781 41.117188 53.042969 C 40.90625 52.683594 40.425781 52.550781 40.0625 52.757812 Z M 44.84375 50.054688 L 42.933594 51.140625 C 42.570312 51.347656 42.433594 51.804688 42.644531 52.1875 C 42.78125 52.433594 43.046875 52.566406 43.316406 52.566406 C 43.449219 52.566406 43.5625 52.53125 43.699219 52.472656 L 45.609375 51.386719 C 45.972656 51.179688 46.109375 50.722656 45.898438 50.339844 C 45.6875 49.976562 45.207031 49.84375 44.84375 50.054688 Z M 48.480469 38.152344 C 48.058594 38.152344 47.714844 38.496094 47.714844 38.914062 L 47.714844 42.53125 C 47.714844 42.953125 48.058594 43.292969 48.480469 43.292969 C 48.898438 43.292969 49.246094 42.953125 49.246094 42.53125 L 49.246094 38.914062 C 49.246094 38.496094 48.898438 38.152344 48.480469 38.152344 Z M 60.335938 19.964844 L 48.097656 26.820312 C 47.847656 26.957031 47.714844 27.203125 47.714844 27.488281 L 47.714844 35.867188 C 47.714844 36.285156 48.058594 36.628906 48.480469 36.628906 C 48.898438 36.628906 49.246094 36.285156 49.246094 35.867188 L 49.246094 27.925781 L 61.101562 21.28125 C 61.464844 21.070312 61.601562 20.613281 61.390625 20.253906 C 61.179688 19.890625 60.71875 19.757812 60.335938 19.964844 Z M 60.335938 19.964844 " fill-opacity="1" fill-rule="nonzero"/></g></g></g></g><g mask="url(#5416ef0930)"><g transform="matrix(1, 0, 0, 1, 37, 27)"><g clip-path="url(#d0baebb4b5)"><path fill="#114676" d="M 39.761719 34.269531 C 39.757812 34.269531 39.757812 34.269531 39.761719 34.269531 C 35.066406 34.269531 30.796875 36.175781 27.722656 39.25 C 24.648438 42.320312 22.734375 46.589844 22.738281 51.277344 C 22.738281 55.96875 24.648438 60.234375 27.722656 63.304688 C 30.792969 66.378906 35.0625 68.285156 39.753906 68.285156 C 39.753906 68.285156 39.757812 68.285156 39.757812 68.285156 C 44.453125 68.285156 48.71875 66.378906 51.789062 63.304688 C 54.867188 60.234375 56.777344 55.964844 56.773438 51.277344 L 52.589844 51.277344 C 52.589844 54.828125 51.15625 58.019531 48.832031 60.347656 C 46.5 62.675781 43.308594 64.105469 39.757812 64.105469 C 36.203125 64.105469 33.011719 62.667969 30.679688 60.347656 C 28.355469 58.019531 26.921875 54.824219 26.921875 51.277344 C 26.921875 47.726562 28.359375 44.535156 30.679688 42.207031 C 33.011719 39.882812 36.207031 38.449219 39.757812 38.449219 C 43.308594 38.449219 46.5 39.882812 48.832031 42.207031 C 51.160156 44.535156 52.589844 47.726562 52.589844 51.277344 L 56.773438 51.277344 C 56.773438 46.585938 54.867188 42.320312 51.789062 39.25 C 48.71875 36.175781 44.453125 34.269531 39.761719 34.269531 " fill-opacity="1" fill-rule="nonzero"/><g clip-path="url(#568a7e804f)"><path fill="#114676" d="M 56.742188 23.222656 C 53.9375 21.527344 50.863281 20.242188 47.597656 19.441406 L 47.101562 21.476562 L 49.191406 21.476562 L 49.191406 17.738281 C 49.191406 16.179688 48.554688 14.753906 47.535156 13.734375 C 46.519531 12.714844 45.085938 12.074219 43.53125 12.078125 L 35.988281 12.078125 C 34.429688 12.078125 33.003906 12.714844 31.980469 13.734375 C 30.960938 14.75 30.320312 16.179688 30.324219 17.738281 L 30.324219 21.476562 L 32.417969 21.476562 L 31.917969 19.441406 C 28.65625 20.242188 25.574219 21.527344 22.777344 23.222656 L 23.859375 25.015625 L 25.339844 23.535156 L 22.695312 20.894531 C 22.148438 20.347656 21.503906 19.929688 20.824219 19.652344 C 20.140625 19.375 19.417969 19.238281 18.691406 19.238281 C 17.96875 19.238281 17.246094 19.375 16.5625 19.652344 C 15.878906 19.929688 15.238281 20.347656 14.6875 20.894531 L 9.351562 26.226562 C 8.804688 26.773438 8.386719 27.417969 8.109375 28.101562 C 7.835938 28.78125 7.695312 29.503906 7.695312 30.230469 C 7.695312 30.953125 7.835938 31.675781 8.109375 32.359375 C 8.386719 33.039062 8.804688 33.683594 9.351562 34.230469 L 11.996094 36.875 L 13.476562 35.394531 L 11.683594 34.3125 C 9.984375 37.113281 8.699219 40.1875 7.902344 43.449219 L 9.933594 43.945312 L 9.933594 41.855469 L 6.195312 41.855469 C 4.636719 41.855469 3.210938 42.492188 2.191406 43.511719 C 1.167969 44.527344 0.527344 45.957031 0.53125 47.515625 L 0.53125 55.054688 C 0.53125 56.609375 1.167969 58.035156 2.191406 59.054688 C 3.207031 60.078125 4.636719 60.71875 6.195312 60.710938 L 9.933594 60.710938 L 9.933594 58.621094 L 7.902344 59.121094 C 8.699219 62.382812 9.984375 65.460938 11.683594 68.257812 L 13.476562 67.175781 L 11.996094 65.695312 L 9.351562 68.335938 C 8.804688 68.882812 8.386719 69.527344 8.109375 70.210938 C 7.835938 70.890625 7.695312 71.617188 7.695312 72.339844 C 7.695312 73.0625 7.835938 73.785156 8.109375 74.46875 C 8.386719 75.148438 8.804688 75.792969 9.351562 76.339844 L 14.6875 81.671875 C 15.238281 82.222656 15.878906 82.640625 16.5625 82.914062 C 17.246094 83.191406 17.96875 83.328125 18.691406 83.328125 C 19.417969 83.328125 20.140625 83.191406 20.824219 82.914062 C 21.503906 82.640625 22.148438 82.222656 22.695312 81.671875 L 25.339844 79.03125 L 23.859375 77.554688 L 22.777344 79.339844 C 25.578125 81.039062 28.65625 82.320312 31.917969 83.121094 L 32.417969 81.089844 L 30.324219 81.089844 L 30.324219 84.828125 C 30.324219 86.382812 30.960938 87.808594 31.980469 88.828125 C 33 89.851562 34.429688 90.488281 35.988281 90.484375 L 43.53125 90.484375 C 45.085938 90.484375 46.515625 89.851562 47.535156 88.828125 C 48.554688 87.8125 49.195312 86.382812 49.191406 84.828125 L 49.191406 81.089844 L 47.101562 81.089844 L 47.597656 83.121094 C 50.863281 82.320312 53.9375 81.039062 56.742188 79.339844 L 55.65625 77.554688 L 54.179688 79.03125 L 56.820312 81.671875 C 57.367188 82.222656 58.011719 82.640625 58.695312 82.914062 C 59.375 83.191406 60.101562 83.328125 60.824219 83.328125 C 61.546875 83.328125 62.273438 83.191406 62.953125 82.914062 C 63.636719 82.640625 64.28125 82.222656 64.828125 81.671875 L 70.164062 76.339844 C 70.710938 75.792969 71.128906 75.148438 71.40625 74.46875 C 71.683594 73.785156 71.820312 73.0625 71.820312 72.339844 C 71.820312 71.617188 71.683594 70.890625 71.40625 70.210938 C 71.128906 69.527344 70.710938 68.882812 70.164062 68.335938 L 67.519531 65.695312 L 66.042969 67.175781 L 67.832031 68.257812 C 69.53125 65.457031 70.816406 62.382812 71.617188 59.121094 L 69.582031 58.621094 L 69.582031 60.710938 L 73.324219 60.710938 C 74.878906 60.710938 76.3125 60.078125 77.328125 59.054688 C 78.347656 58.039062 78.988281 56.609375 78.984375 55.054688 C 78.984375 53.898438 78.046875 52.964844 76.890625 52.964844 C 75.738281 52.964844 74.800781 53.898438 74.800781 55.054688 C 74.800781 55.46875 74.636719 55.824219 74.367188 56.101562 C 74.097656 56.371094 73.738281 56.53125 73.324219 56.535156 L 67.941406 56.535156 L 67.554688 58.128906 C 66.855469 60.976562 65.734375 63.65625 64.253906 66.09375 L 63.40625 67.496094 L 67.210938 71.296875 C 67.355469 71.449219 67.460938 71.605469 67.535156 71.78125 C 67.605469 71.957031 67.644531 72.152344 67.644531 72.339844 C 67.644531 72.527344 67.605469 72.71875 67.535156 72.894531 C 67.464844 73.070312 67.359375 73.234375 67.210938 73.378906 L 61.875 78.710938 C 61.726562 78.863281 61.566406 78.964844 61.390625 79.039062 C 61.214844 79.109375 61.019531 79.148438 60.832031 79.148438 C 60.640625 79.148438 60.453125 79.109375 60.277344 79.039062 C 60.101562 78.96875 59.9375 78.863281 59.785156 78.710938 L 55.984375 74.910156 L 54.582031 75.761719 C 52.140625 77.242188 49.460938 78.355469 46.609375 79.054688 L 45.015625 79.445312 L 45.015625 84.824219 C 45.015625 85.238281 44.851562 85.59375 44.585938 85.867188 C 44.3125 86.140625 43.953125 86.300781 43.539062 86.304688 L 35.996094 86.304688 C 35.582031 86.304688 35.226562 86.140625 34.949219 85.867188 C 34.675781 85.597656 34.519531 85.242188 34.511719 84.824219 L 34.511719 79.445312 L 32.917969 79.054688 C 30.070312 78.355469 27.386719 77.234375 24.949219 75.761719 L 23.546875 74.910156 L 19.742188 78.710938 C 19.59375 78.863281 19.433594 78.964844 19.257812 79.039062 C 19.082031 79.109375 18.890625 79.148438 18.699219 79.148438 C 18.507812 79.148438 18.320312 79.109375 18.144531 79.039062 C 17.96875 78.96875 17.804688 78.863281 17.65625 78.710938 L 12.320312 73.378906 C 12.171875 73.230469 12.070312 73.070312 11.992188 72.894531 C 11.921875 72.71875 11.882812 72.527344 11.882812 72.339844 C 11.882812 72.152344 11.921875 71.957031 11.992188 71.78125 C 12.066406 71.605469 12.167969 71.445312 12.320312 71.296875 L 16.125 67.496094 L 15.273438 66.09375 C 13.792969 63.65625 12.675781 60.976562 11.976562 58.128906 L 11.582031 56.535156 L 6.195312 56.535156 C 5.78125 56.535156 5.425781 56.371094 5.148438 56.101562 C 4.875 55.828125 4.71875 55.472656 4.710938 55.054688 L 4.710938 47.515625 C 4.710938 47.101562 4.875 46.746094 5.148438 46.46875 C 5.421875 46.195312 5.777344 46.039062 6.195312 46.039062 L 11.574219 46.039062 L 11.96875 44.445312 C 12.667969 41.597656 13.789062 38.914062 15.265625 36.476562 L 16.113281 35.074219 L 12.3125 31.273438 C 12.164062 31.125 12.058594 30.964844 11.984375 30.785156 C 11.914062 30.609375 11.875 30.421875 11.875 30.230469 C 11.875 30.035156 11.914062 29.847656 11.984375 29.671875 C 12.054688 29.496094 12.160156 29.332031 12.3125 29.1875 L 17.648438 23.855469 C 17.796875 23.707031 17.957031 23.605469 18.132812 23.527344 C 18.308594 23.457031 18.5 23.421875 18.6875 23.421875 C 18.882812 23.421875 19.070312 23.457031 19.246094 23.527344 C 19.421875 23.601562 19.582031 23.703125 19.734375 23.855469 L 23.539062 27.65625 L 24.941406 26.808594 C 27.378906 25.332031 30.0625 24.210938 32.910156 23.511719 L 34.503906 23.125 L 34.503906 17.746094 C 34.503906 17.332031 34.667969 16.976562 34.941406 16.699219 C 35.210938 16.429688 35.566406 16.269531 35.988281 16.269531 L 43.53125 16.269531 C 43.945312 16.269531 44.300781 16.433594 44.578125 16.699219 C 44.847656 16.972656 45.007812 17.332031 45.007812 17.746094 L 45.007812 23.125 L 46.601562 23.511719 C 49.453125 24.210938 52.132812 25.332031 54.574219 26.808594 C 55.5625 27.40625 56.847656 27.09375 57.449219 26.105469 C 58.042969 25.109375 57.726562 23.820312 56.742188 23.222656 " fill-opacity="1" fill-rule="nonzero"/></g><path fill="#ae0806" d="M 82.433594 16.597656 C 82.433594 16.597656 82.429688 16.597656 82.429688 16.597656 C 78.867188 16.597656 75.621094 18.050781 73.289062 20.382812 C 70.953125 22.714844 69.503906 25.957031 69.503906 29.519531 C 69.503906 33.078125 70.953125 36.324219 73.289062 38.652344 C 75.621094 40.984375 78.863281 42.4375 82.425781 42.4375 C 82.425781 42.4375 82.425781 42.4375 82.429688 42.4375 C 85.988281 42.4375 89.234375 40.984375 91.566406 38.652344 C 93.902344 36.320312 95.351562 33.078125 95.351562 29.519531 L 91.167969 29.519531 C 91.167969 31.933594 90.195312 34.109375 88.609375 35.695312 C 87.019531 37.28125 84.847656 38.253906 82.429688 38.253906 C 80.007812 38.253906 77.832031 37.28125 76.246094 35.695312 C 74.660156 34.105469 73.6875 31.933594 73.6875 29.519531 C 73.6875 27.101562 74.660156 24.925781 76.246094 23.339844 C 77.839844 21.753906 80.007812 20.78125 82.429688 20.78125 C 84.847656 20.78125 87.023438 21.753906 88.609375 23.339844 C 90.195312 24.929688 91.164062 27.101562 91.167969 29.519531 L 95.351562 29.519531 C 95.351562 25.957031 93.902344 22.714844 91.566406 20.382812 C 89.234375 18.050781 85.992188 16.597656 82.433594 16.597656 " fill-opacity="1" fill-rule="nonzero"/><g clip-path="url(#9f26c248cd)"><path fill="#ae0806" d="M 70.574219 13.09375 L 71.976562 12.246094 C 73.695312 11.203125 75.585938 10.414062 77.597656 9.921875 L 79.195312 9.53125 L 79.195312 5.171875 C 79.195312 5.03125 79.242188 4.917969 79.339844 4.824219 C 79.4375 4.730469 79.550781 4.675781 79.691406 4.675781 L 85.164062 4.675781 C 85.3125 4.675781 85.417969 4.730469 85.515625 4.824219 C 85.609375 4.917969 85.664062 5.03125 85.664062 5.171875 L 85.664062 9.527344 L 87.257812 9.917969 C 89.269531 10.410156 91.160156 11.199219 92.878906 12.242188 L 94.28125 13.089844 L 97.363281 10.011719 C 97.417969 9.960938 97.464844 9.929688 97.523438 9.902344 C 97.582031 9.878906 97.648438 9.867188 97.714844 9.867188 C 97.777344 9.867188 97.84375 9.878906 97.902344 9.902344 C 97.960938 9.929688 98.011719 9.960938 98.066406 10.011719 L 101.933594 13.878906 C 101.984375 13.933594 102.019531 13.984375 102.042969 14.042969 C 102.070312 14.101562 102.082031 14.164062 102.082031 14.230469 C 102.082031 14.300781 102.070312 14.363281 102.042969 14.421875 C 102.019531 14.480469 101.984375 14.527344 101.933594 14.582031 L 98.855469 17.660156 L 99.707031 19.0625 C 100.746094 20.78125 101.539062 22.671875 102.03125 24.683594 L 102.421875 26.277344 L 106.777344 26.277344 C 106.917969 26.277344 107.03125 26.332031 107.128906 26.421875 C 107.21875 26.519531 107.273438 26.632812 107.273438 26.773438 L 107.273438 32.246094 C 107.273438 32.390625 107.21875 32.5 107.128906 32.597656 C 107.03125 32.6875 106.917969 32.742188 106.777344 32.742188 L 102.421875 32.742188 L 102.03125 34.335938 C 101.539062 36.347656 100.746094 38.238281 99.707031 39.957031 L 98.855469 41.359375 L 101.933594 44.4375 C 101.984375 44.488281 102.019531 44.539062 102.042969 44.597656 C 102.070312 44.65625 102.082031 44.71875 102.082031 44.785156 C 102.082031 44.855469 102.070312 44.917969 102.042969 44.976562 C 102.019531 45.035156 101.984375 45.082031 101.933594 45.136719 L 98.066406 49.007812 C 98.011719 49.0625 97.960938 49.09375 97.902344 49.117188 C 97.84375 49.140625 97.78125 49.152344 97.714844 49.152344 C 97.648438 49.152344 97.582031 49.140625 97.523438 49.117188 C 97.464844 49.089844 97.417969 49.058594 97.363281 49.007812 L 94.28125 45.929688 L 92.878906 46.777344 C 91.160156 47.820312 89.269531 48.609375 87.257812 49.101562 L 85.664062 49.496094 L 85.664062 53.851562 C 85.664062 53.996094 85.609375 54.105469 85.515625 54.199219 C 85.417969 54.292969 85.308594 54.347656 85.164062 54.347656 L 79.691406 54.347656 C 79.550781 54.347656 79.4375 54.296875 79.339844 54.199219 C 79.25 54.105469 79.195312 53.992188 79.195312 53.851562 L 79.195312 49.496094 L 77.597656 49.101562 C 75.585938 48.609375 73.695312 47.820312 71.976562 46.777344 L 70.574219 45.929688 L 67.496094 49.007812 C 67.441406 49.0625 67.390625 49.09375 67.332031 49.117188 C 67.273438 49.140625 67.210938 49.152344 67.144531 49.152344 C 67.074219 49.152344 67.011719 49.140625 66.953125 49.117188 C 66.894531 49.089844 66.847656 49.058594 66.792969 49.007812 L 62.921875 45.136719 C 62.867188 45.082031 62.832031 45.035156 62.8125 44.976562 C 62.785156 44.917969 62.773438 44.855469 62.773438 44.785156 C 62.773438 44.71875 62.785156 44.65625 62.8125 44.597656 C 62.835938 44.539062 62.871094 44.488281 62.921875 44.4375 L 66 41.359375 L 65.152344 39.957031 C 64.109375 38.238281 63.320312 36.347656 62.824219 34.335938 L 62.429688 32.742188 L 58.074219 32.742188 C 57.933594 32.742188 57.820312 32.6875 57.722656 32.597656 C 57.632812 32.5 57.578125 32.386719 57.578125 32.246094 L 57.578125 26.773438 C 57.578125 26.628906 57.628906 26.519531 57.722656 26.421875 C 57.820312 26.332031 57.933594 26.277344 58.074219 26.277344 L 62.429688 26.277344 L 62.824219 24.683594 C 63.320312 22.671875 64.109375 20.78125 65.152344 19.0625 L 66 17.660156 L 62.921875 14.582031 C 62.867188 14.527344 62.832031 14.480469 62.8125 14.421875 C 62.785156 14.363281 62.773438 14.300781 62.773438 14.230469 C 62.773438 14.164062 62.785156 14.101562 62.8125 14.042969 C 62.835938 13.984375 62.871094 13.933594 62.921875 13.878906 L 66.792969 10.011719 C 66.847656 9.960938 66.894531 9.929688 66.953125 9.902344 C 67.011719 9.878906 67.074219 9.867188 67.144531 9.867188 C 67.210938 9.867188 67.273438 9.878906 67.332031 9.902344 C 67.390625 9.929688 67.441406 9.960938 67.496094 10.011719 L 70.574219 13.09375 M 85.171875 0.492188 C 85.171875 0.492188 85.167969 0.492188 85.167969 0.492188 L 79.695312 0.492188 C 79.695312 0.492188 79.691406 0.492188 79.691406 0.492188 C 78.40625 0.492188 77.226562 1.019531 76.386719 1.867188 C 75.539062 2.707031 75.011719 3.890625 75.011719 5.171875 L 75.011719 6.308594 C 73.710938 6.722656 72.457031 7.242188 71.257812 7.859375 L 70.457031 7.058594 C 70.003906 6.609375 69.472656 6.261719 68.910156 6.03125 C 68.34375 5.800781 67.746094 5.6875 67.148438 5.6875 C 66.546875 5.6875 65.949219 5.800781 65.386719 6.03125 C 64.820312 6.261719 64.289062 6.605469 63.835938 7.058594 L 59.964844 10.929688 C 59.515625 11.378906 59.167969 11.910156 58.9375 12.476562 C 58.707031 13.039062 58.59375 13.636719 58.59375 14.234375 C 58.59375 14.835938 58.707031 15.433594 58.9375 15.996094 C 59.167969 16.5625 59.515625 17.09375 59.964844 17.542969 L 60.765625 18.34375 C 60.148438 19.539062 59.628906 20.796875 59.214844 22.097656 L 58.082031 22.097656 C 58.082031 22.097656 58.078125 22.097656 58.078125 22.097656 C 57.269531 22.097656 56.492188 22.3125 55.824219 22.679688 C 56.136719 22.855469 56.449219 23.035156 56.753906 23.21875 C 57.742188 23.816406 58.058594 25.105469 57.457031 26.09375 C 57.0625 26.742188 56.371094 27.101562 55.664062 27.101562 C 55.296875 27.101562 54.921875 27.003906 54.582031 26.796875 C 54.210938 26.570312 53.828125 26.351562 53.445312 26.144531 C 53.414062 26.351562 53.402344 26.566406 53.402344 26.777344 L 53.402344 32.25 C 53.402344 33.53125 53.929688 34.714844 54.773438 35.558594 C 55.613281 36.402344 56.796875 36.929688 58.082031 36.929688 C 58.082031 36.929688 58.082031 36.929688 58.089844 36.929688 L 59.21875 36.929688 C 59.632812 38.230469 60.15625 39.484375 60.769531 40.683594 L 59.972656 41.484375 C 59.519531 41.933594 59.171875 42.464844 58.941406 43.03125 C 58.710938 43.59375 58.597656 44.191406 58.597656 44.792969 C 58.597656 45.390625 58.710938 45.988281 58.941406 46.550781 C 59.171875 47.117188 59.519531 47.648438 59.972656 48.097656 L 63.839844 51.96875 C 64.292969 52.417969 64.824219 52.765625 65.390625 52.996094 C 65.953125 53.226562 66.554688 53.339844 67.152344 53.339844 C 67.75 53.339844 68.347656 53.226562 68.914062 52.996094 C 69.476562 52.765625 70.007812 52.417969 70.460938 51.96875 L 71.261719 51.167969 C 72.457031 51.789062 73.710938 52.304688 75.019531 52.71875 L 75.019531 53.851562 C 75.019531 53.9375 75.023438 54.019531 75.027344 54.105469 C 75.371094 53.417969 76.082031 52.945312 76.902344 52.945312 C 78.054688 52.945312 78.992188 53.882812 78.992188 55.039062 C 78.992188 56.207031 78.632812 57.308594 78.019531 58.214844 C 78.539062 58.417969 79.109375 58.53125 79.699219 58.53125 C 79.699219 58.53125 79.699219 58.53125 79.703125 58.53125 L 85.175781 58.53125 C 85.175781 58.53125 85.179688 58.53125 85.179688 58.53125 C 86.464844 58.53125 87.644531 58.003906 88.488281 57.15625 C 89.332031 56.316406 89.859375 55.132812 89.859375 53.851562 L 89.859375 52.71875 C 91.160156 52.304688 92.421875 51.785156 93.617188 51.167969 L 94.417969 51.96875 C 94.867188 52.417969 95.398438 52.765625 95.964844 52.996094 C 96.527344 53.226562 97.128906 53.339844 97.726562 53.339844 C 98.324219 53.339844 98.921875 53.226562 99.488281 52.996094 C 100.050781 52.765625 100.582031 52.417969 101.035156 51.96875 L 104.90625 48.097656 C 105.359375 47.648438 105.707031 47.117188 105.9375 46.550781 C 106.164062 45.988281 106.277344 45.390625 106.277344 44.792969 C 106.277344 44.191406 106.164062 43.59375 105.9375 43.03125 C 105.707031 42.464844 105.363281 41.933594 104.90625 41.484375 L 104.105469 40.683594 C 104.726562 39.488281 105.246094 38.234375 105.660156 36.929688 L 106.792969 36.929688 C 108.078125 36.929688 109.261719 36.402344 110.101562 35.558594 C 110.949219 34.714844 111.476562 33.53125 111.476562 32.25 L 111.476562 26.777344 C 111.476562 25.496094 110.949219 24.3125 110.101562 23.46875 C 109.261719 22.628906 108.082031 22.097656 106.796875 22.097656 C 106.796875 22.097656 106.792969 22.097656 106.792969 22.097656 L 105.660156 22.097656 C 105.246094 20.796875 104.722656 19.539062 104.105469 18.34375 L 104.90625 17.542969 C 105.359375 17.09375 105.707031 16.5625 105.9375 15.996094 C 106.164062 15.433594 106.277344 14.835938 106.277344 14.234375 C 106.277344 13.636719 106.164062 13.039062 105.9375 12.476562 C 105.707031 11.910156 105.359375 11.378906 104.90625 10.929688 L 101.035156 7.058594 C 100.582031 6.609375 100.050781 6.261719 99.488281 6.03125 C 98.921875 5.800781 98.324219 5.6875 97.726562 5.6875 C 97.128906 5.6875 96.527344 5.800781 95.964844 6.03125 C 95.398438 6.261719 94.867188 6.605469 94.417969 7.058594 L 93.617188 7.859375 C 92.421875 7.238281 91.160156 6.722656 89.859375 6.308594 L 89.859375 5.179688 C 89.859375 3.894531 89.332031 2.710938 88.488281 1.871094 C 87.636719 1.023438 86.457031 0.492188 85.171875 0.492188 " fill-opacity="1" fill-rule="nonzero"/></g><path fill="#4c98a8" d="M 76.886719 52.957031 C 76.066406 52.957031 75.355469 53.429688 75.011719 54.117188 C 75.078125 55.304688 75.589844 56.386719 76.378906 57.171875 C 76.828125 57.625 77.386719 57.988281 78 58.226562 C 78.617188 57.320312 78.980469 56.222656 78.976562 55.050781 C 78.980469 53.894531 78.042969 52.957031 76.886719 52.957031 M 55.8125 22.683594 C 55.421875 22.898438 55.070312 23.164062 54.761719 23.476562 C 54.058594 24.171875 53.574219 25.113281 53.433594 26.148438 C 53.820312 26.355469 54.199219 26.574219 54.574219 26.800781 C 54.910156 27.003906 55.285156 27.105469 55.65625 27.105469 C 56.363281 27.105469 57.054688 26.746094 57.449219 26.097656 C 58.046875 25.109375 57.730469 23.820312 56.746094 23.222656 C 56.433594 23.039062 56.125 22.859375 55.8125 22.683594 " fill-opacity="1" fill-rule="nonzero"/></g></g></g><g mask="url(#cc5d9192aa)"><g transform="matrix(1, 0, 0, 1, 37, 187)"><g clip-path="url(#642e5880b1)"><g clip-path="url(#918e65c34c)"><path fill="#114676" d="M 58.355469 102.082031 L 55.746094 102.082031 L 55.746094 89.140625 C 55.746094 86.101562 53.257812 83.628906 50.195312 83.628906 L 20.570312 83.628906 C 21.289062 82.769531 21.886719 81.808594 22.328125 80.761719 L 58.355469 80.761719 C 60.761719 80.761719 62.71875 78.820312 62.71875 76.429688 C 62.71875 74.039062 60.761719 72.09375 58.355469 72.09375 L 22.328125 72.09375 C 21.722656 70.664062 20.824219 69.386719 19.714844 68.328125 L 19.714844 45.007812 L 28.660156 45.007812 L 37.382812 57.992188 C 37.441406 58.078125 37.515625 58.144531 37.59375 58.203125 C 37.601562 58.207031 37.605469 58.21875 37.617188 58.226562 L 43.445312 62.203125 C 43.59375 62.304688 43.765625 62.355469 43.941406 62.355469 C 44.109375 62.355469 44.277344 62.304688 44.421875 62.207031 L 55.355469 54.976562 C 55.652344 54.777344 55.800781 54.417969 55.726562 54.066406 L 54.269531 47.199219 C 54.257812 47.148438 54.230469 47.113281 54.214844 47.070312 C 54.191406 47.007812 54.175781 46.945312 54.140625 46.890625 L 28.632812 8.929688 C 28.367188 8.53125 27.824219 8.421875 27.421875 8.6875 L 22.683594 11.824219 L 20.746094 8.9375 L 24.382812 6.527344 C 24.578125 6.402344 24.710938 6.199219 24.757812 5.972656 C 24.800781 5.742188 24.757812 5.507812 24.625 5.3125 L 21.710938 0.976562 C 21.441406 0.574219 20.902344 0.46875 20.5 0.734375 L 7.382812 9.410156 C 7.1875 9.539062 7.054688 9.738281 7.007812 9.96875 C 6.960938 10.195312 7.007812 10.433594 7.140625 10.625 L 10.054688 14.964844 C 10.222656 15.214844 10.5 15.351562 10.785156 15.351562 C 10.949219 15.351562 11.117188 15.304688 11.265625 15.207031 L 14.914062 12.792969 L 16.851562 15.679688 L 12.121094 18.8125 C 11.925781 18.9375 11.792969 19.140625 11.746094 19.367188 C 11.699219 19.597656 11.746094 19.832031 11.878906 20.027344 L 18.21875 29.464844 C 10.308594 29.949219 4.019531 36.46875 4.019531 44.441406 L 4.019531 68.328125 C 1.871094 70.375 0.53125 73.246094 0.53125 76.429688 C 0.53125 79.609375 1.871094 82.480469 4.015625 84.53125 L 4.015625 102.167969 C 2.027344 102.574219 0.53125 104.324219 0.53125 106.417969 C 0.53125 108.804688 2.488281 110.75 4.894531 110.75 L 58.355469 110.75 C 60.761719 110.75 62.71875 108.804688 62.71875 106.414062 C 62.71875 104.023438 60.761719 102.082031 58.355469 102.082031 Z M 58.355469 73.84375 C 59.796875 73.84375 60.96875 75.003906 60.96875 76.429688 C 60.96875 77.855469 59.796875 79.015625 58.355469 79.015625 L 22.886719 79.015625 C 23.085938 78.183594 23.203125 77.320312 23.203125 76.429688 C 23.203125 75.539062 23.085938 74.675781 22.886719 73.84375 Z M 43.949219 60.425781 L 39.679688 57.515625 L 52.824219 48.820312 L 53.890625 53.847656 Z M 38.351562 56.296875 L 16.734375 24.121094 L 30.578125 14.964844 L 52.195312 47.136719 Z M 11.023438 13.269531 L 9.085938 10.382812 L 20.742188 2.671875 L 22.679688 5.558594 L 14.667969 10.859375 C 14.667969 10.859375 14.667969 10.859375 14.664062 10.859375 Z M 16.371094 11.828125 L 19.285156 9.902344 L 21.222656 12.789062 L 18.3125 14.714844 Z M 18.554688 16.652344 C 18.558594 16.652344 18.558594 16.652344 18.554688 16.652344 C 18.558594 16.652344 18.558594 16.648438 18.554688 16.652344 L 22.929688 13.757812 L 27.664062 10.625 L 29.605469 13.511719 L 15.761719 22.667969 L 13.820312 19.785156 Z M 5.769531 44.441406 C 5.769531 37.121094 11.769531 31.167969 19.148438 31.167969 L 19.363281 31.167969 L 27.484375 43.261719 L 19.148438 43.261719 C 18.496094 43.261719 17.964844 43.789062 17.964844 44.441406 L 17.964844 66.957031 C 16.199219 65.835938 14.109375 65.175781 11.867188 65.175781 C 9.621094 65.175781 7.53125 65.835938 5.769531 66.957031 Z M 2.28125 76.429688 C 2.28125 71.1875 6.582031 66.921875 11.867188 66.921875 C 17.148438 66.921875 21.449219 71.1875 21.449219 76.429688 C 21.449219 81.671875 17.148438 85.933594 11.867188 85.933594 C 6.582031 85.933594 2.28125 81.671875 2.28125 76.429688 Z M 11.867188 87.683594 C 14.441406 87.683594 16.808594 86.816406 18.714844 85.375 L 50.195312 85.375 C 52.292969 85.375 53.996094 87.0625 53.996094 89.140625 L 53.996094 102.082031 L 5.769531 102.082031 L 5.769531 85.902344 C 7.53125 87.023438 9.621094 87.683594 11.867188 87.683594 Z M 58.355469 109 L 4.894531 109 C 3.453125 109 2.28125 107.839844 2.28125 106.417969 C 2.28125 104.992188 3.453125 103.828125 4.894531 103.828125 L 58.355469 103.828125 C 59.796875 103.828125 60.96875 104.988281 60.96875 106.417969 C 60.96875 107.84375 59.796875 109 58.355469 109 Z M 58.355469 109 " fill-opacity="1" fill-rule="nonzero"/></g><path fill="#114676" d="M 11.867188 81.917969 C 14.914062 81.917969 17.390625 79.453125 17.390625 76.429688 C 17.390625 73.402344 14.914062 70.941406 11.867188 70.941406 C 8.820312 70.941406 6.339844 73.402344 6.339844 76.429688 C 6.339844 79.453125 8.820312 81.917969 11.867188 81.917969 Z M 11.867188 72.691406 C 13.945312 72.691406 15.640625 74.367188 15.640625 76.429688 C 15.640625 78.488281 13.945312 80.167969 11.867188 80.167969 C 9.785156 80.167969 8.09375 78.492188 8.09375 76.429688 C 8.09375 74.367188 9.785156 72.691406 11.867188 72.691406 Z M 11.867188 72.691406 " fill-opacity="1" fill-rule="nonzero"/><path fill="#114676" d="M 18.839844 99.21875 C 21.246094 99.21875 23.203125 97.273438 23.203125 94.882812 C 23.203125 92.492188 21.246094 90.546875 18.839844 90.546875 C 16.433594 90.546875 14.476562 92.492188 14.476562 94.882812 C 14.476562 97.273438 16.433594 99.21875 18.839844 99.21875 Z M 18.839844 92.296875 C 20.28125 92.296875 21.449219 93.457031 21.449219 94.882812 C 21.449219 96.308594 20.28125 97.46875 18.839844 97.46875 C 17.398438 97.46875 16.230469 96.308594 16.230469 94.882812 C 16.230469 93.457031 17.398438 92.296875 18.839844 92.296875 Z M 18.839844 92.296875 " fill-opacity="1" fill-rule="nonzero"/><path fill="#114676" d="M 29.363281 28.816406 C 28.695312 27.820312 27.332031 27.550781 26.328125 28.210938 L 25.234375 28.9375 C 24.746094 29.261719 24.414062 29.753906 24.300781 30.324219 C 24.1875 30.894531 24.304688 31.472656 24.628906 31.957031 L 30.460938 40.636719 C 30.878906 41.261719 31.574219 41.601562 32.285156 41.601562 C 32.699219 41.601562 33.121094 41.484375 33.492188 41.238281 L 34.585938 40.515625 C 35.074219 40.191406 35.40625 39.699219 35.519531 39.128906 C 35.636719 38.558594 35.519531 37.980469 35.195312 37.496094 Z M 33.804688 38.785156 C 33.789062 38.851562 33.75 38.972656 33.621094 39.058594 L 32.523438 39.78125 C 32.320312 39.917969 32.050781 39.863281 31.914062 39.660156 L 26.082031 30.980469 C 25.996094 30.855469 26.007812 30.730469 26.019531 30.664062 C 26.039062 30.554688 26.105469 30.457031 26.203125 30.390625 L 27.296875 29.667969 C 27.375 29.617188 27.460938 29.59375 27.542969 29.59375 C 27.683594 29.59375 27.824219 29.664062 27.910156 29.789062 L 33.742188 38.46875 C 33.824219 38.597656 33.816406 38.722656 33.804688 38.785156 Z M 33.804688 38.785156 " fill-opacity="1" fill-rule="nonzero"/></g></g></g><g mask="url(#b695ef1417)"><g transform="matrix(1, 0, 0, 1, 254, 88)"><g clip-path="url(#2fcbad48a0)"><g clip-path="url(#9e3c72cfb7)"><path fill="#114676" d="M 26.796875 34.4375 C 28.4375 36.105469 30.289062 36.617188 31.945312 35.894531 L 34.726562 38.714844 C 34.855469 38.847656 35.035156 38.921875 35.21875 38.921875 C 35.265625 38.921875 35.3125 38.917969 35.359375 38.90625 L 39.15625 38.132812 C 39.40625 38.085938 39.609375 37.898438 39.683594 37.65625 C 39.757812 37.410156 39.691406 37.144531 39.511719 36.964844 C 39.511719 36.964844 36.53125 33.945312 35.203125 32.601562 C 35.941406 30.898438 35.472656 28.976562 33.910156 27.355469 C 33.910156 27.355469 33.90625 27.351562 33.90625 27.351562 C 33.890625 27.332031 33.875 27.316406 33.859375 27.296875 L 18.390625 11.617188 L 19.429688 10.566406 C 19.699219 10.292969 19.699219 9.859375 19.433594 9.585938 L 16.007812 6.117188 C 15.878906 5.988281 15.699219 5.910156 15.515625 5.910156 C 15.515625 5.910156 15.515625 5.910156 15.511719 5.910156 C 15.328125 5.910156 15.148438 5.988281 15.019531 6.121094 L 14.378906 6.769531 L 9.382812 1.703125 C 8.484375 0.796875 7.296875 0.292969 6.027344 0.292969 C 4.761719 0.292969 3.570312 0.796875 2.671875 1.703125 L 1.554688 2.839844 C -0.289062 4.707031 -0.289062 7.75 1.554688 9.617188 L 6.566406 14.691406 L 5.90625 15.359375 C 5.640625 15.628906 5.640625 16.066406 5.910156 16.339844 L 9.332031 19.804688 C 9.460938 19.9375 9.640625 20.011719 9.824219 20.011719 C 10.011719 20.011719 10.191406 19.9375 10.320312 19.804688 L 11.34375 18.769531 Z M 17.414062 12.605469 L 32.035156 27.433594 L 24.035156 29.660156 L 12.320312 17.777344 Z M 2.542969 3.816406 L 3.664062 2.683594 C 4.296875 2.039062 5.132812 1.6875 6.027344 1.6875 C 6.921875 1.6875 7.757812 2.039062 8.390625 2.683594 L 13.402344 7.765625 L 7.542969 13.703125 L 2.542969 8.640625 C 1.234375 7.308594 1.234375 5.144531 2.542969 3.816406 Z M 2.542969 3.816406 " fill-opacity="1" fill-rule="nonzero"/></g><g clip-path="url(#399b7e1652)"><path fill="#114676" d="M 84.792969 27.15625 C 83.738281 26.089844 82.339844 25.5 80.855469 25.5 L 50.765625 25.5 C 50.363281 24.191406 49.164062 23.257812 47.894531 23.382812 C 46.933594 23.484375 46.0625 24.21875 45.679688 25.25 C 45.648438 25.328125 45.632812 25.410156 45.632812 25.496094 L 45.632812 36.21875 C 44.722656 36.90625 43.933594 37.722656 43.289062 38.667969 C 42.675781 39.585938 42.226562 40.597656 41.925781 41.671875 L 35.375 41.671875 C 34.050781 41.671875 32.976562 42.761719 32.976562 44.097656 C 32.976562 45.4375 34.050781 46.527344 35.375 46.527344 L 35.535156 46.527344 L 35.535156 63.75 L 22.035156 80.859375 C 22.023438 80.878906 22.007812 80.898438 21.992188 80.917969 C 21.609375 81.53125 21.128906 82.535156 21.035156 83.828125 C 20.894531 85.648438 21.574219 87.042969 21.992188 87.710938 C 22.121094 87.917969 22.34375 88.039062 22.582031 88.039062 L 63.515625 88.039062 C 63.757812 88.039062 63.980469 87.917969 64.109375 87.710938 C 64.523438 87.042969 65.207031 85.648438 65.066406 83.832031 C 64.972656 82.535156 64.492188 81.53125 64.105469 80.917969 C 64.09375 80.898438 64.078125 80.878906 64.0625 80.859375 L 50.566406 63.75 L 50.566406 46.527344 L 50.722656 46.527344 C 52.046875 46.527344 53.125 45.4375 53.125 44.097656 C 53.125 42.761719 52.046875 41.671875 50.722656 41.671875 L 47.84375 41.671875 L 47.84375 38.910156 C 47.863281 38.910156 47.878906 38.917969 47.898438 38.917969 C 47.976562 38.925781 48.058594 38.929688 48.136719 38.929688 C 49.308594 38.929688 50.386719 38.035156 50.769531 36.796875 L 80.855469 36.796875 C 83.925781 36.796875 86.421875 34.265625 86.421875 31.148438 C 86.421875 29.640625 85.84375 28.222656 84.792969 27.15625 Z M 50.722656 43.066406 C 51.28125 43.066406 51.734375 43.527344 51.734375 44.097656 C 51.734375 44.675781 51.289062 45.132812 50.722656 45.132812 L 49.871094 45.132812 C 49.484375 45.132812 49.175781 45.445312 49.175781 45.828125 L 49.175781 63.992188 C 49.175781 64.148438 49.226562 64.300781 49.324219 64.425781 L 62.949219 81.695312 C 63.246094 82.171875 63.605469 82.945312 63.679688 83.9375 C 63.769531 85.109375 63.421875 86.058594 63.113281 86.648438 L 22.984375 86.648438 C 22.675781 86.058594 22.332031 85.109375 22.421875 83.933594 C 22.492188 82.945312 22.855469 82.175781 23.152344 81.695312 L 36.777344 64.425781 C 36.871094 64.300781 36.925781 64.148438 36.925781 63.992188 L 36.925781 45.832031 C 36.925781 45.445312 36.613281 45.132812 36.230469 45.132812 L 35.375 45.132812 C 34.808594 45.132812 34.367188 44.679688 34.367188 44.097656 C 34.367188 43.527344 34.816406 43.066406 35.375 43.066406 L 41.625 43.066406 C 41.582031 43.390625 41.546875 43.71875 41.53125 44.054688 L 41.53125 53.625 C 41.53125 54.695312 42.394531 55.566406 43.457031 55.566406 C 43.753906 55.566406 43.992188 55.8125 43.992188 56.117188 L 43.992188 61.109375 C 43.992188 62.1875 44.855469 63.0625 45.921875 63.0625 C 46.984375 63.0625 47.847656 62.1875 47.847656 61.109375 L 47.847656 43.066406 Z M 50.203125 35.40625 C 49.847656 35.40625 49.546875 35.675781 49.511719 36.027344 C 49.410156 36.992188 48.652344 37.59375 48.035156 37.53125 C 47.871094 37.515625 47.710938 37.453125 47.550781 37.335938 C 47.339844 37.183594 47.152344 36.949219 47.023438 36.671875 L 47.023438 25.632812 C 47.238281 25.152344 47.636719 24.808594 48.035156 24.765625 C 48.648438 24.703125 49.410156 25.3125 49.511719 26.269531 C 49.546875 26.625 49.847656 26.894531 50.203125 26.894531 L 74.425781 26.894531 C 72.191406 28.460938 69.890625 29.847656 67.558594 31.015625 C 63.5 33.054688 59.257812 34.53125 54.953125 35.40625 Z M 50.203125 35.40625 " fill-opacity="1" fill-rule="nonzero"/></g><path fill="#114676" d="M 40.589844 61.394531 C 41.875 61.394531 42.921875 60.335938 42.921875 59.035156 C 42.921875 57.730469 41.875 56.671875 40.589844 56.671875 C 39.300781 56.671875 38.253906 57.730469 38.253906 59.035156 C 38.253906 60.335938 39.300781 61.394531 40.589844 61.394531 Z M 40.589844 61.394531 " fill-opacity="1" fill-rule="nonzero"/><path fill="#114676" d="M 43.992188 66.519531 C 43.992188 67.824219 45.039062 68.882812 46.328125 68.882812 C 47.617188 68.882812 48.664062 67.824219 48.664062 66.519531 C 48.664062 65.21875 47.617188 64.160156 46.328125 64.160156 C 45.039062 64.160156 43.992188 65.21875 43.992188 66.519531 Z M 43.992188 66.519531 " fill-opacity="1" fill-rule="nonzero"/><path fill="#114676" d="M 48.664062 72.351562 C 48.664062 71.046875 47.617188 69.988281 46.328125 69.988281 C 45.707031 69.988281 45.121094 70.234375 44.675781 70.679688 C 44.234375 71.121094 43.992188 71.714844 43.992188 72.347656 C 43.992188 72.613281 43.894531 72.855469 43.714844 73.035156 C 43.585938 73.164062 43.367188 73.316406 43.046875 73.316406 C 42.796875 73.316406 42.566406 73.21875 42.382812 73.035156 C 42.207031 72.855469 42.109375 72.613281 42.109375 72.347656 L 42.109375 67.355469 C 42.109375 66.054688 41.058594 64.996094 39.769531 64.996094 C 39.148438 64.996094 38.542969 65.25 38.117188 65.6875 C 37.675781 66.128906 37.433594 66.71875 37.433594 67.355469 L 37.433594 72.347656 C 37.433594 72.882812 37.011719 73.316406 36.488281 73.316406 L 33.679688 73.316406 C 32.992188 73.316406 32.34375 73.621094 31.890625 74.152344 L 27.558594 79.363281 C 27.542969 79.378906 27.527344 79.402344 27.515625 79.421875 C 27.21875 79.863281 26.851562 80.59375 26.773438 81.550781 C 26.679688 82.796875 27.121094 83.777344 27.507812 84.378906 C 27.636719 84.578125 27.859375 84.695312 28.09375 84.695312 L 58.011719 84.695312 C 58.246094 84.695312 58.46875 84.578125 58.597656 84.378906 C 58.984375 83.777344 59.425781 82.796875 59.332031 81.546875 C 59.253906 80.59375 58.886719 79.867188 58.589844 79.421875 C 58.578125 79.402344 58.5625 79.382812 58.546875 79.363281 L 54.910156 74.988281 C 54.460938 74.453125 53.808594 74.144531 53.117188 74.144531 L 49.617188 74.144531 C 49.09375 74.144531 48.671875 73.710938 48.671875 73.179688 L 48.671875 72.351562 Z M 49.613281 75.539062 L 53.109375 75.539062 C 53.390625 75.539062 53.652344 75.664062 53.835938 75.882812 L 57.449219 80.222656 C 57.648438 80.53125 57.890625 81.023438 57.941406 81.65625 C 57.988281 82.328125 57.8125 82.890625 57.605469 83.304688 L 28.492188 83.304688 C 28.285156 82.890625 28.109375 82.328125 28.160156 81.664062 C 28.210938 81.027344 28.449219 80.535156 28.652344 80.226562 L 32.953125 75.050781 C 33.136719 74.835938 33.402344 74.710938 33.675781 74.710938 L 36.484375 74.710938 C 37.773438 74.710938 38.824219 73.652344 38.824219 72.351562 L 38.824219 67.355469 C 38.824219 67.09375 38.921875 66.851562 39.105469 66.667969 C 39.277344 66.492188 39.519531 66.390625 39.769531 66.390625 C 40.289062 66.390625 40.714844 66.824219 40.714844 67.359375 L 40.714844 72.351562 C 40.714844 72.988281 40.957031 73.582031 41.394531 74.015625 C 41.824219 74.457031 42.425781 74.710938 43.042969 74.710938 C 43.664062 74.710938 44.253906 74.464844 44.699219 74.023438 C 45.140625 73.582031 45.382812 72.988281 45.382812 72.351562 C 45.382812 72.089844 45.480469 71.84375 45.660156 71.667969 C 45.839844 71.484375 46.078125 71.382812 46.328125 71.382812 C 46.847656 71.382812 47.273438 71.816406 47.273438 72.351562 L 47.273438 73.179688 C 47.273438 74.480469 48.324219 75.539062 49.613281 75.539062 Z M 49.613281 75.539062 " fill-opacity="1" fill-rule="nonzero"/><path fill="#114676" d="M 39.769531 77.476562 C 37.5 77.476562 35.789062 78.492188 35.789062 79.835938 C 35.789062 81.183594 37.5 82.199219 39.769531 82.199219 C 42.035156 82.199219 43.742188 81.183594 43.742188 79.835938 C 43.742188 78.492188 42.035156 77.476562 39.769531 77.476562 Z M 39.769531 77.476562 " fill-opacity="1" fill-rule="nonzero"/><path fill="#114676" d="M 45.632812 79.007812 C 45.632812 80.355469 47.34375 81.367188 49.613281 81.367188 C 51.878906 81.367188 53.589844 80.355469 53.589844 79.007812 C 53.589844 77.660156 51.878906 76.648438 49.613281 76.648438 C 47.34375 76.648438 45.632812 77.664062 45.632812 79.007812 Z M 45.632812 79.007812 " fill-opacity="1" fill-rule="nonzero"/></g></g></g></svg>