<?xml version="1.0" standalone="no"?>
<!DOCTYPE svg PUBLIC "-//W3C//DTD SVG 20010904//EN"
 "http://www.w3.org/TR/2001/REC-SVG-20010904/DTD/svg10.dtd">
<svg version="1.0" xmlns="http://www.w3.org/2000/svg"
 width="1280.000000pt" height="853.000000pt" viewBox="0 0 1280.000000 853.000000"
 preserveAspectRatio="xMidYMid meet">
<g transform="translate(0.000000,853.000000) scale(0.100000,-0.100000)"
fill="#000000" stroke="none">
<path d="M2400 7334 c-46 -14 -87 -27 -89 -30 -3 -2 5 -64 17 -137 38 -232 28
-292 -59 -344 -30 -18 -68 -33 -85 -33 -49 0 -141 53 -251 145 -56 47 -104 85
-108 85 -13 0 -86 -64 -125 -111 l-40 -48 58 -68 c98 -114 151 -192 169 -249
l17 -55 -31 -57 c-40 -74 -74 -92 -174 -92 -41 0 -125 9 -185 20 -60 11 -114
20 -121 20 -13 0 -59 -134 -65 -190 l-3 -34 116 -42 c140 -49 211 -87 250
-131 26 -30 29 -41 29 -103 0 -62 -3 -73 -29 -103 -36 -40 -105 -76 -254 -131
-104 -39 -112 -44 -109 -67 5 -36 42 -172 51 -187 6 -10 31 -9 121 8 136 24
269 26 310 5 16 -8 43 -40 61 -71 31 -55 32 -59 20 -103 -16 -60 -58 -124
-155 -240 l-79 -93 79 -79 c43 -43 82 -79 87 -79 4 0 53 38 108 85 109 91 203
145 254 145 49 0 138 -58 152 -100 16 -48 15 -139 -3 -235 -8 -44 -17 -103
-21 -131 l-5 -50 73 -22 c41 -12 91 -23 112 -25 l39 -2 38 107 c49 135 94 220
137 258 30 27 41 30 98 30 58 0 68 -3 100 -32 44 -38 86 -118 136 -258 l37
-105 39 2 c42 3 181 42 188 53 2 4 -5 54 -16 111 -25 126 -29 261 -10 306 16
39 103 93 148 93 48 0 141 -54 250 -145 56 -47 104 -85 108 -85 13 0 86 64
125 111 l41 49 -85 103 c-98 117 -146 200 -148 254 -2 52 51 137 94 152 48 17
173 13 294 -9 60 -11 112 -20 115 -20 17 0 74 209 62 221 -5 5 -53 24 -108 44
-127 46 -229 100 -260 137 -21 25 -25 40 -25 98 0 63 3 72 31 105 35 40 129
88 264 135 50 17 93 35 98 39 8 8 -38 200 -52 214 -7 7 -40 4 -93 -7 -46 -10
-130 -20 -188 -23 -140 -7 -164 3 -209 86 l-33 62 17 52 c20 62 56 115 153
230 l74 88 -36 44 c-37 45 -117 115 -131 115 -4 0 -35 -24 -69 -53 -136 -119
-231 -176 -290 -177 -44 0 -131 54 -147 93 -19 45 -15 190 9 312 11 55 18 103
16 107 -8 12 -143 49 -186 51 l-40 2 -37 -105 c-44 -125 -92 -218 -132 -256
-23 -22 -40 -29 -87 -32 -118 -8 -167 49 -257 302 -39 108 -39 108 -165 70z
m542 -738 c274 -52 499 -264 569 -533 27 -106 27 -260 0 -366 -61 -236 -242
-428 -479 -507 -87 -30 -109 -33 -217 -34 -145 0 -211 15 -343 80 -166 81
-300 238 -359 419 -35 109 -43 270 -18 382 85 386 460 633 847 559z"/>
<path d="M2671 6364 c-232 -62 -399 -314 -363 -547 28 -172 122 -307 269 -381
310 -156 671 32 725 376 37 244 -126 490 -367 553 -73 19 -192 18 -264 -1z"/>
<path d="M7020 7004 c-47 -14 -89 -29 -94 -34 -6 -6 0 -59 14 -137 27 -145 31
-261 12 -315 -11 -30 -26 -45 -73 -73 -36 -21 -73 -35 -93 -35 -53 0 -145 53
-267 155 -63 52 -120 95 -126 95 -17 0 -145 -122 -162 -153 -13 -24 -10 -29
50 -99 96 -110 126 -150 159 -213 39 -75 39 -119 -1 -190 -43 -76 -82 -90
-227 -82 -59 4 -147 16 -197 26 -69 15 -93 17 -102 8 -14 -15 -66 -202 -61
-223 2 -10 52 -34 137 -64 144 -53 229 -98 267 -143 21 -25 24 -39 24 -109 l0
-81 -40 -38 c-46 -44 -142 -91 -284 -140 -54 -19 -100 -39 -103 -46 -6 -15 44
-212 57 -228 7 -8 44 -5 137 11 140 25 269 29 322 11 26 -9 44 -27 68 -67 63
-104 39 -176 -128 -372 -49 -57 -88 -109 -89 -116 0 -17 155 -172 172 -172 8
0 53 33 100 74 143 122 231 175 295 176 19 0 57 -14 92 -35 47 -28 62 -43 72
-73 19 -54 15 -181 -11 -314 -12 -65 -20 -124 -17 -131 5 -14 129 -54 199 -63
l43 -6 34 99 c52 151 104 255 151 296 39 36 43 37 115 37 68 0 77 -2 108 -30
44 -38 93 -134 147 -282 49 -135 39 -129 161 -98 120 31 132 38 124 74 -47
228 -54 368 -24 431 16 34 112 94 150 95 69 1 166 -57 312 -184 l88 -77 47 43
c88 80 137 138 126 153 -5 7 -48 60 -96 117 -93 109 -142 190 -152 248 -5 28
0 47 27 95 49 88 72 98 222 91 66 -3 161 -14 210 -25 50 -11 94 -16 98 -11 12
11 56 165 59 207 l3 35 -110 39 c-147 52 -243 100 -285 144 -34 35 -35 38 -35
115 0 76 1 80 34 114 46 47 133 92 276 142 l120 42 -3 35 c-3 42 -47 196 -59
207 -4 4 -66 -3 -138 -17 -151 -28 -294 -29 -337 -1 -14 9 -40 45 -58 81 l-33
64 17 53 c22 68 64 131 166 250 44 52 80 97 80 101 0 13 -163 169 -177 169 -8
0 -51 -32 -96 -71 -142 -123 -238 -180 -306 -179 -38 1 -134 61 -150 95 -25
51 -25 150 0 290 33 191 37 175 -51 202 -73 22 -170 40 -170 31 0 -2 -20 -59
-44 -125 -56 -153 -100 -236 -145 -274 -32 -26 -43 -29 -108 -29 -69 0 -75 2
-112 35 -45 41 -101 151 -152 298 -32 94 -34 97 -64 96 -16 0 -68 -11 -115
-25z m596 -805 c243 -45 462 -218 568 -451 52 -113 70 -196 70 -328 0 -140
-19 -220 -79 -345 -133 -276 -404 -445 -710 -445 -229 0 -395 70 -560 235
-105 104 -153 181 -197 315 -29 88 -32 105 -32 235 0 153 12 217 64 331 103
228 326 405 571 453 64 13 236 13 305 0z"/>
<path d="M7350 5954 c-182 -39 -339 -175 -402 -349 -26 -75 -36 -224 -18 -304
40 -182 193 -347 375 -403 101 -32 235 -30 331 4 389 137 500 615 210 904
-135 135 -312 188 -496 148z"/>
<path d="M4375 5298 c-138 -34 -205 -59 -205 -76 0 -9 12 -75 26 -147 18 -89
27 -166 28 -245 2 -157 -10 -182 -109 -238 -40 -23 -81 -42 -92 -42 -80 0
-203 74 -377 228 -86 75 -109 91 -123 83 -10 -5 -62 -54 -116 -110 -67 -67
-96 -104 -91 -113 4 -7 41 -50 82 -95 142 -155 232 -303 232 -380 0 -14 -19
-58 -42 -99 -34 -60 -49 -76 -80 -89 -84 -33 -207 -29 -427 16 -143 29 -134
33 -165 -68 -37 -123 -52 -201 -41 -211 6 -5 60 -26 120 -46 130 -45 280 -114
329 -151 61 -46 76 -81 76 -176 l0 -83 -54 -52 c-63 -62 -162 -111 -348 -175
-148 -51 -140 -38 -104 -180 26 -103 51 -169 63 -169 4 0 64 11 133 25 171 34
338 42 405 18 45 -16 53 -25 93 -93 38 -64 43 -80 39 -117 -9 -84 -80 -196
-239 -376 -37 -43 -68 -85 -68 -93 0 -18 194 -214 212 -214 7 0 45 28 83 62
192 169 319 248 398 248 58 0 174 -70 195 -118 26 -59 21 -227 -12 -405 -15
-82 -24 -153 -20 -157 26 -24 281 -88 294 -73 4 4 28 69 55 143 74 209 135
320 199 359 48 30 174 30 222 0 64 -39 125 -150 200 -359 26 -74 51 -139 55
-143 12 -15 267 49 293 73 4 4 -5 75 -20 157 -33 177 -38 346 -13 404 22 47
140 119 196 119 79 0 206 -79 398 -248 39 -34 76 -62 83 -62 18 0 212 195 212
214 0 8 -38 58 -85 113 -153 176 -226 298 -224 376 0 19 18 60 43 102 37 63
47 72 91 88 67 24 234 16 405 -18 69 -14 129 -25 133 -25 12 0 37 66 63 169
36 142 44 129 -104 180 -226 78 -349 148 -387 222 -22 42 -20 166 4 202 45 69
175 140 386 213 61 20 114 41 120 46 11 10 -4 88 -41 211 -31 101 -22 97 -165
68 -220 -45 -343 -49 -427 -16 -31 13 -46 29 -80 89 -23 41 -42 87 -42 102 1
74 73 194 215 359 43 50 85 98 93 107 13 15 4 27 -84 118 -55 56 -107 106
-117 111 -14 8 -30 -2 -85 -52 -165 -151 -302 -242 -386 -254 -40 -6 -52 -3
-119 35 -85 49 -104 77 -114 170 -6 65 9 206 38 349 10 51 19 101 19 110 0 19
-24 29 -160 66 -150 40 -138 46 -189 -105 -59 -177 -118 -294 -176 -350 l-46
-45 -94 0 -94 0 -46 45 c-57 55 -110 159 -173 340 -46 131 -48 135 -77 137
-17 1 -48 -3 -70 -9z m650 -1007 c373 -77 658 -354 752 -727 27 -107 24 -343
-6 -454 -93 -350 -352 -606 -709 -702 -100 -26 -322 -30 -427 -6 -163 37 -308
110 -433 218 -98 84 -171 181 -232 305 -72 146 -94 246 -94 425 0 202 32 321
133 495 60 103 208 254 314 319 207 129 468 176 702 127z"/>
<path d="M4650 3987 c-111 -33 -204 -89 -285 -172 -80 -81 -125 -152 -163
-257 -25 -66 -27 -85 -26 -213 0 -131 2 -145 31 -220 68 -181 177 -300 345
-380 180 -86 386 -86 566 0 168 80 276 199 346 380 29 75 30 88 31 220 0 127
-3 147 -27 213 -38 106 -83 177 -163 258 -82 83 -176 139 -289 171 -107 31
-259 31 -366 0z"/>
<path d="M9262 5036 c-45 -13 -85 -25 -88 -29 -3 -3 2 -41 11 -84 9 -43 19
-117 22 -164 8 -115 -5 -152 -65 -190 -86 -54 -153 -33 -312 101 -52 44 -97
80 -100 80 -3 0 -39 -33 -79 -74 l-74 -74 67 -79 c85 -99 130 -167 146 -219
11 -37 10 -45 -14 -92 -14 -28 -37 -59 -50 -67 -37 -25 -113 -28 -226 -10 -58
9 -121 19 -141 22 l-35 5 -22 -73 c-39 -133 -42 -125 73 -168 136 -51 196 -83
233 -126 27 -30 32 -44 32 -87 0 -66 -24 -104 -92 -145 -42 -25 -157 -72 -266
-108 -14 -5 -12 -20 21 -134 l21 -73 35 5 c20 3 83 13 141 22 127 20 202 14
235 -20 41 -40 67 -102 59 -141 -8 -44 -70 -141 -145 -226 -33 -36 -59 -73
-59 -81 0 -14 126 -147 139 -147 4 0 43 30 87 68 169 143 234 166 319 117 31
-18 52 -40 61 -61 20 -47 17 -146 -6 -266 -11 -57 -20 -106 -20 -110 0 -9 109
-43 166 -52 l41 -7 32 93 c41 115 96 223 129 248 19 15 40 20 92 20 67 0 68
-1 105 -41 40 -44 78 -122 114 -229 33 -101 26 -97 128 -71 48 12 93 27 100
34 8 9 7 35 -8 107 -20 104 -25 234 -9 274 13 35 95 86 137 86 50 0 123 -41
228 -130 52 -44 98 -80 102 -80 5 0 42 33 82 74 l74 74 -45 49 c-108 116 -178
227 -178 281 0 32 47 109 78 130 35 23 156 22 285 -2 62 -12 102 -15 108 -9
13 13 49 141 49 174 0 22 -7 28 -56 43 -118 37 -224 88 -264 127 -39 38 -40
41 -40 104 0 60 2 67 35 99 38 39 119 79 242 122 76 26 83 31 83 55 0 30 -37
159 -50 172 -4 5 -63 -1 -130 -12 -205 -35 -255 -26 -307 54 -18 27 -33 61
-33 76 0 43 56 139 135 233 41 48 75 93 75 100 0 6 -31 43 -70 81 l-70 69 -24
-19 c-212 -173 -246 -195 -305 -195 -37 0 -98 29 -126 60 -29 32 -32 163 -7
298 18 97 18 103 2 112 -19 10 -159 50 -176 50 -6 0 -28 -46 -49 -102 -49
-133 -77 -188 -115 -227 -29 -29 -37 -31 -99 -31 -53 0 -74 5 -93 20 -33 25
-88 133 -128 248 -24 66 -37 92 -49 91 -9 0 -53 -11 -99 -23z m532 -686 c123
-31 209 -81 306 -179 136 -136 194 -276 194 -466 0 -118 -19 -198 -72 -305
-49 -101 -177 -231 -277 -282 -127 -64 -165 -73 -320 -73 -132 1 -145 2 -220
31 -133 51 -225 118 -302 219 -259 340 -148 816 236 1009 129 66 308 84 455
46z"/>
<path d="M9485 4139 c-154 -54 -259 -169 -300 -326 -37 -142 2 -299 104 -414
146 -166 407 -199 595 -74 295 196 262 639 -61 792 -71 35 -86 38 -178 41 -81
2 -111 -2 -160 -19z"/>
<path d="M10745 2896 c-45 -13 -43 -3 -30 -157 10 -114 5 -131 -48 -159 l-43
-23 -44 20 c-25 11 -73 43 -107 71 -34 29 -68 52 -76 52 -16 0 -87 -71 -87
-88 0 -7 22 -41 50 -75 82 -101 97 -151 63 -208 -28 -47 -75 -56 -191 -37 -53
9 -100 13 -104 9 -9 -8 -37 -114 -32 -122 2 -3 42 -21 90 -39 104 -41 154 -83
154 -129 0 -69 -40 -105 -165 -152 -86 -31 -85 -30 -67 -100 l15 -61 51 6
c186 24 217 21 246 -27 11 -18 20 -46 20 -63 0 -33 -43 -107 -96 -167 -19 -20
-34 -43 -34 -50 0 -7 20 -32 44 -56 l44 -43 69 55 c77 61 122 87 154 87 33 0
88 -39 95 -67 7 -25 -1 -161 -12 -219 -6 -30 -5 -31 55 -48 34 -9 65 -15 70
-12 4 3 20 39 35 80 16 42 41 94 57 116 28 38 32 40 84 40 50 0 56 -3 80 -35
15 -19 41 -71 59 -117 37 -92 37 -92 125 -68 41 11 43 13 37 43 -11 59 -19
195 -12 220 7 28 62 67 95 67 32 0 77 -26 155 -88 l68 -55 49 49 49 49 -41 50
c-99 119 -117 170 -79 232 29 48 60 51 246 27 l51 -6 12 48 c7 27 14 56 17 65
4 13 -16 25 -90 53 -134 52 -176 103 -146 180 12 31 63 64 158 101 40 16 75
32 77 36 7 11 -30 124 -40 124 -6 0 -52 -6 -103 -14 -71 -11 -101 -11 -130 -3
-41 13 -72 56 -72 100 0 33 36 96 89 160 23 27 41 55 41 64 0 15 -73 88 -88
88 -4 0 -41 -27 -82 -60 -41 -34 -91 -66 -111 -72 -32 -9 -42 -8 -78 13 -51
28 -56 46 -47 158 4 47 8 99 9 115 2 26 -2 30 -43 42 -54 16 -90 18 -90 4 0
-29 -63 -169 -89 -198 -25 -27 -37 -32 -74 -32 -34 0 -50 6 -70 25 -27 28 -68
108 -88 173 -14 47 -29 51 -104 28z m397 -466 c209 -64 344 -279 309 -494 -30
-184 -157 -324 -338 -371 -305 -79 -603 189 -554 500 43 277 316 448 583 365z"/>
<path d="M10905 2292 c-126 -43 -204 -153 -205 -288 0 -82 23 -144 76 -203 64
-72 139 -106 229 -105 94 0 160 30 224 100 64 70 85 131 79 228 -13 203 -211
334 -403 268z"/>
</g>
</svg>
